# xmcd CD database file
#
# Track frame offsets:
#	150
#	9472
#	22490
#	33125
#	43410
#	53537
#	64535
#	77607
#	87862
#	96912
#	107597
#	119435
#	129282
#	143375
#	154375
#	164005
#	175947
#	188517
#	203400
#
# Disc length: 2867 seconds
#
# Revision: 1
# Processed by: cddbd v1.5.2PL0 Copyright (c) Steve Scherf et al.
# Submitted via: CDex 1.70beta2
#
DISCID=f00b3113
DTITLE=Davis , Skeeter - Blueberry Hill (1965) and  The End Of The World  - Blueberry Hill - The End Of The World (Two LPs on One CD)
DYEAR=2004
DGENRE=Crossover
TTITLE0=Blueberry Hill (lewis-Stock-Rose)
TTITLE1=Where I Ought To Be (Howard)
TTITLE2=The Little Music Boy (Thacker)
TTITLE3=Lost To A Geisha Girl (Williams)
TTITLE4=Walk Softly Darling (Carter)
TTITLE5=The Face Of A Clown (Penick)
TTITLE6=Somebody Else On Your Mind (Skeeter Davis)
TTITLE7=Homebreaker (David-Wilson)
TTITLE8=Optimistic (Freeman)
TTITLE9=Give Me Death (Davis-Wilson)
TTITLE10=The End Of The World (S.Dee-A.Kent)
TTITLE11=Daddy Sang Bass (Perkins)
TTITLE12=My Coloring Book (Kander-Ebb)
TTITLE13=Son Of A Preacher Man (Wilkins-Hurley)
TTITLE14=Am I That Easy To Forget (Belew-Stevenson)
TTITLE15=Little Arrows (Hazlewood-Hammond)
TTITLE16=Hold Me Tight (Nash)
TTITLE17=Angel Of The Morning (C.Taylor)
TTITLE18=I Forgot More Than I'll Ever Know
EXTD=YEAR: 2004
EXTT0=
EXTT1=
EXTT2=
EXTT3=
EXTT4=
EXTT5=
EXTT6=
EXTT7=
EXTT8=
EXTT9=
EXTT10=
EXTT11=
EXTT12=
EXTT13=
EXTT14=
EXTT15=
EXTT16=
EXTT17=
EXTT18=
PLAYORDER=
